<svg width="28" height="28" viewBox="0 0 28 28" fill="none" xmlns="http://www.w3.org/2000/svg">
<path fill-rule="evenodd" clip-rule="evenodd" d="M7.29163 9.33337C7.29163 8.85012 7.68338 8.45837 8.16663 8.45837H19.8333C20.3165 8.45837 20.7083 8.85012 20.7083 9.33337C20.7083 9.81662 20.3165 10.2084 19.8333 10.2084H8.16663C7.68338 10.2084 7.29163 9.81662 7.29163 9.33337ZM7.29163 14C7.29163 13.5168 7.68338 13.125 8.16663 13.125H19.8333C20.3165 13.125 20.7083 13.5168 20.7083 14C20.7083 14.4833 20.3165 14.875 19.8333 14.875H8.16663C7.68338 14.875 7.29163 14.4833 7.29163 14ZM8.16663 17.7917C7.68338 17.7917 7.29163 18.1835 7.29163 18.6667C7.29163 19.15 7.68338 19.5417 8.16663 19.5417H19.8333C20.3165 19.5417 20.7083 19.15 20.7083 18.6667C20.7083 18.1835 20.3165 17.7917 19.8333 17.7917H8.16663Z" fill="#313530"/>
</svg>
